<?xml version="1.0" ?><!DOCTYPE svg  PUBLIC '-//W3C//DTD SVG 1.1//EN'  'http://www.w3.org/Graphics/SVG/1.1/DTD/svg11.dtd'><svg enable-background="new 0 0 32 32" height="32px" id="Layer_1" version="1.1" viewBox="0 0 32 32" width="32px" xml:space="preserve" xmlns="http://www.w3.org/2000/svg" xmlns:xlink="http://www.w3.org/1999/xlink"><g><polyline fill="none" points="   649,137.999 675,137.999 675,155.999 661,155.999  " stroke="#FFFFFF" stroke-linecap="round" stroke-linejoin="round" stroke-miterlimit="10" stroke-width="2"/><polyline fill="none" points="   653,155.999 649,155.999 649,141.999  " stroke="#FFFFFF" stroke-linecap="round" stroke-linejoin="round" stroke-miterlimit="10" stroke-width="2"/><polyline fill="none" points="   661,156 653,162 653,156  " stroke="#FFFFFF" stroke-linecap="round" stroke-linejoin="round" stroke-miterlimit="10" stroke-width="2"/></g><path d="M29,13h-6V3c0-0.552-0.447-1-1-1H10C9.448,2,9,2.448,9,3v10H3c-0.552,0-1,0.448-1,1s0.448,1,1,1h6v2c0,0.553,0.448,1,1,1h12  c0.553,0,1-0.447,1-1v-2h5v10h-5v-1c0-0.553-0.447-1-1-1H10c-0.552,0-1,0.447-1,1v1H4v-7c0-0.553-0.448-1-1-1s-1,0.447-1,1v8  c0,0.553,0.448,1,1,1h6v2c0,0.553,0.448,1,1,1h12c0.553,0,1-0.447,1-1v-2h6c0.553,0,1-0.447,1-1V14C30,13.448,29.553,13,29,13z   M21,16H11V4h10V16z M21,28H11v-3h10V28z"/></svg>